<?xml version="1.0" encoding="UTF-8"?>
<svg width="1400" height="550" xmlns="http://www.w3.org/2000/svg">
  <defs>
    <style>
      .title { font-size: 20px; font-weight: bold; }
      .header { font-size: 13px; font-weight: bold; }
      .text { font-size: 11px; }
    </style>
  </defs>

  <text x="700" y="30" text-anchor="middle" class="title">Item 2-2: Sparse Attention Patterns</text>

  <!-- Pattern 1: Causal -->
  <text x="200" y="70" text-anchor="middle" class="header">Causal Masking (Language)</text>

  <!-- 6x6 matrix -->
  <rect x="100" y="90" width="20" height="20" fill="#4ECDC4" stroke="black"/><text x="110" y="105" text-anchor="middle" class="text" fill="white">1</text>
  <rect x="120" y="90" width="20" height="20" fill="#CCCCCC" stroke="black"/>
  <rect x="140" y="90" width="20" height="20" fill="#CCCCCC" stroke="black"/>
  <rect x="160" y="90" width="20" height="20" fill="#CCCCCC" stroke="black"/>
  <rect x="180" y="90" width="20" height="20" fill="#CCCCCC" stroke="black"/>
  <rect x="200" y="90" width="20" height="20" fill="#CCCCCC" stroke="black"/>

  <rect x="100" y="110" width="20" height="20" fill="#4ECDC4" stroke="black"/><text x="110" y="125" text-anchor="middle" class="text" fill="white">1</text>
  <rect x="120" y="110" width="20" height="20" fill="#4ECDC4" stroke="black"/><text x="130" y="125" text-anchor="middle" class="text" fill="white">1</text>
  <rect x="140" y="110" width="20" height="20" fill="#CCCCCC" stroke="black"/>
  <rect x="160" y="110" width="20" height="20" fill="#CCCCCC" stroke="black"/>
  <rect x="180" y="110" width="20" height="20" fill="#CCCCCC" stroke="black"/>
  <rect x="200" y="110" width="20" height="20" fill="#CCCCCC" stroke="black"/>

  <rect x="100" y="130" width="20" height="20" fill="#4ECDC4" stroke="black"/><text x="110" y="145" text-anchor="middle" class="text" fill="white">1</text>
  <rect x="120" y="130" width="20" height="20" fill="#4ECDC4" stroke="black"/><text x="130" y="145" text-anchor="middle" class="text" fill="white">1</text>
  <rect x="140" y="130" width="20" height="20" fill="#4ECDC4" stroke="black"/><text x="150" y="145" text-anchor="middle" class="text" fill="white">1</text>
  <rect x="160" y="130" width="20" height="20" fill="#CCCCCC" stroke="black"/>
  <rect x="180" y="130" width="20" height="20" fill="#CCCCCC" stroke="black"/>
  <rect x="200" y="130" width="20" height="20" fill="#CCCCCC" stroke="black"/>

  <rect x="100" y="150" width="20" height="20" fill="#4ECDC4" stroke="black"/><text x="110" y="165" text-anchor="middle" class="text" fill="white">1</text>
  <rect x="120" y="150" width="20" height="20" fill="#4ECDC4" stroke="black"/><text x="130" y="165" text-anchor="middle" class="text" fill="white">1</text>
  <rect x="140" y="150" width="20" height="20" fill="#4ECDC4" stroke="black"/><text x="150" y="165" text-anchor="middle" class="text" fill="white">1</text>
  <rect x="160" y="150" width="20" height="20" fill="#4ECDC4" stroke="black"/><text x="170" y="165" text-anchor="middle" class="text" fill="white">1</text>
  <rect x="180" y="150" width="20" height="20" fill="#CCCCCC" stroke="black"/>
  <rect x="200" y="150" width="20" height="20" fill="#CCCCCC" stroke="black"/>

  <rect x="100" y="170" width="20" height="20" fill="#4ECDC4" stroke="black"/><text x="110" y="185" text-anchor="middle" class="text" fill="white">1</text>
  <rect x="120" y="170" width="20" height="20" fill="#4ECDC4" stroke="black"/><text x="130" y="185" text-anchor="middle" class="text" fill="white">1</text>
  <rect x="140" y="170" width="20" height="20" fill="#4ECDC4" stroke="black"/><text x="150" y="185" text-anchor="middle" class="text" fill="white">1</text>
  <rect x="160" y="170" width="20" height="20" fill="#4ECDC4" stroke="black"/><text x="170" y="185" text-anchor="middle" class="text" fill="white">1</text>
  <rect x="180" y="170" width="20" height="20" fill="#4ECDC4" stroke="black"/><text x="190" y="185" text-anchor="middle" class="text" fill="white">1</text>
  <rect x="200" y="170" width="20" height="20" fill="#CCCCCC" stroke="black"/>

  <rect x="100" y="190" width="20" height="20" fill="#4ECDC4" stroke="black"/><text x="110" y="205" text-anchor="middle" class="text" fill="white">1</text>
  <rect x="120" y="190" width="20" height="20" fill="#4ECDC4" stroke="black"/><text x="130" y="205" text-anchor="middle" class="text" fill="white">1</text>
  <rect x="140" y="190" width="20" height="20" fill="#4ECDC4" stroke="black"/><text x="150" y="205" text-anchor="middle" class="text" fill="white">1</text>
  <rect x="160" y="190" width="20" height="20" fill="#4ECDC4" stroke="black"/><text x="170" y="205" text-anchor="middle" class="text" fill="white">1</text>
  <rect x="180" y="190" width="20" height="20" fill="#4ECDC4" stroke="black"/><text x="190" y="205" text-anchor="middle" class="text" fill="white">1</text>
  <rect x="200" y="190" width="20" height="20" fill="#4ECDC4" stroke="black"/><text x="210" y="205" text-anchor="middle" class="text" fill="white">1</text>

  <text x="200" y="260" text-anchor="middle" class="text">Sparsity: 50%</text>

  <!-- Pattern 2: Local Window -->
  <text x="700" y="70" text-anchor="middle" class="header">Local Window (Vision)</text>

  <rect x="600" y="90" width="20" height="20" fill="#A8E6CF" stroke="black"/><text x="610" y="105" text-anchor="middle" class="text">1</text>
  <rect x="620" y="90" width="20" height="20" fill="#A8E6CF" stroke="black"/><text x="630" y="105" text-anchor="middle" class="text">1</text>
  <rect x="640" y="90" width="20" height="20" fill="#CCCCCC" stroke="black"/>
  <rect x="660" y="90" width="20" height="20" fill="#CCCCCC" stroke="black"/>
  <rect x="680" y="90" width="20" height="20" fill="#CCCCCC" stroke="black"/>
  <rect x="700" y="90" width="20" height="20" fill="#CCCCCC" stroke="black"/>

  <rect x="600" y="110" width="20" height="20" fill="#A8E6CF" stroke="black"/><text x="610" y="125" text-anchor="middle" class="text">1</text>
  <rect x="620" y="110" width="20" height="20" fill="#A8E6CF" stroke="black"/><text x="630" y="125" text-anchor="middle" class="text">1</text>
  <rect x="640" y="110" width="20" height="20" fill="#A8E6CF" stroke="black"/><text x="650" y="125" text-anchor="middle" class="text">1</text>
  <rect x="660" y="110" width="20" height="20" fill="#CCCCCC" stroke="black"/>
  <rect x="680" y="110" width="20" height="20" fill="#CCCCCC" stroke="black"/>
  <rect x="700" y="110" width="20" height="20" fill="#CCCCCC" stroke="black"/>

  <rect x="600" y="130" width="20" height="20" fill="#A8E6CF" stroke="black"/><text x="610" y="145" text-anchor="middle" class="text">1</text>
  <rect x="620" y="130" width="20" height="20" fill="#A8E6CF" stroke="black"/><text x="630" y="145" text-anchor="middle" class="text">1</text>
  <rect x="640" y="130" width="20" height="20" fill="#A8E6CF" stroke="black"/><text x="650" y="145" text-anchor="middle" class="text">1</text>
  <rect x="660" y="130" width="20" height="20" fill="#A8E6CF" stroke="black"/><text x="670" y="145" text-anchor="middle" class="text">1</text>
  <rect x="680" y="130" width="20" height="20" fill="#CCCCCC" stroke="black"/>
  <rect x="700" y="130" width="20" height="20" fill="#CCCCCC" stroke="black"/>

  <rect x="600" y="150" width="20" height="20" fill="#CCCCCC" stroke="black"/>
  <rect x="620" y="150" width="20" height="20" fill="#A8E6CF" stroke="black"/><text x="630" y="165" text-anchor="middle" class="text">1</text>
  <rect x="640" y="150" width="20" height="20" fill="#A8E6CF" stroke="black"/><text x="650" y="165" text-anchor="middle" class="text">1</text>
  <rect x="660" y="150" width="20" height="20" fill="#A8E6CF" stroke="black"/><text x="670" y="165" text-anchor="middle" class="text">1</text>
  <rect x="680" y="150" width="20" height="20" fill="#A8E6CF" stroke="black"/><text x="690" y="165" text-anchor="middle" class="text">1</text>
  <rect x="700" y="150" width="20" height="20" fill="#CCCCCC" stroke="black"/>

  <rect x="600" y="170" width="20" height="20" fill="#CCCCCC" stroke="black"/>
  <rect x="620" y="170" width="20" height="20" fill="#CCCCCC" stroke="black"/>
  <rect x="640" y="170" width="20" height="20" fill="#A8E6CF" stroke="black"/><text x="650" y="185" text-anchor="middle" class="text">1</text>
  <rect x="660" y="170" width="20" height="20" fill="#A8E6CF" stroke="black"/><text x="670" y="185" text-anchor="middle" class="text">1</text>
  <rect x="680" y="170" width="20" height="20" fill="#A8E6CF" stroke="black"/><text x="690" y="185" text-anchor="middle" class="text">1</text>
  <rect x="700" y="170" width="20" height="20" fill="#A8E6CF" stroke="black"/><text x="710" y="185" text-anchor="middle" class="text">1</text>

  <text x="700" y="260" text-anchor="middle" class="text">Sparsity: 67%</text>

  <!-- Pattern 3: Strided -->
  <text x="1200" y="70" text-anchor="middle" class="header">Strided (stride=3)</text>

  <rect x="1100" y="90" width="20" height="20" fill="#FFE66D" stroke="black"/><text x="1110" y="105" text-anchor="middle" class="text">1</text>
  <rect x="1120" y="90" width="20" height="20" fill="#CCCCCC" stroke="black"/>
  <rect x="1140" y="90" width="20" height="20" fill="#CCCCCC" stroke="black"/>
  <rect x="1160" y="90" width="20" height="20" fill="#FFE66D" stroke="black"/><text x="1170" y="105" text-anchor="middle" class="text">1</text>
  <rect x="1180" y="90" width="20" height="20" fill="#CCCCCC" stroke="black"/>
  <rect x="1200" y="90" width="20" height="20" fill="#CCCCCC" stroke="black"/>

  <rect x="1100" y="110" width="20" height="20" fill="#FFE66D" stroke="black"/><text x="1110" y="125" text-anchor="middle" class="text">1</text>
  <rect x="1120" y="110" width="20" height="20" fill="#CCCCCC" stroke="black"/>
  <rect x="1140" y="110" width="20" height="20" fill="#CCCCCC" stroke="black"/>
  <rect x="1160" y="110" width="20" height="20" fill="#FFE66D" stroke="black"/><text x="1170" y="125" text-anchor="middle" class="text">1</text>
  <rect x="1180" y="110" width="20" height="20" fill="#CCCCCC" stroke="black"/>
  <rect x="1200" y="110" width="20" height="20" fill="#CCCCCC" stroke="black"/>

  <rect x="1100" y="130" width="20" height="20" fill="#FFE66D" stroke="black"/><text x="1110" y="145" text-anchor="middle" class="text">1</text>
  <rect x="1120" y="130" width="20" height="20" fill="#CCCCCC" stroke="black"/>
  <rect x="1140" y="130" width="20" height="20" fill="#CCCCCC" stroke="black"/>
  <rect x="1160" y="130" width="20" height="20" fill="#FFE66D" stroke="black"/><text x="1170" y="145" text-anchor="middle" class="text">1</text>
  <rect x="1180" y="130" width="20" height="20" fill="#CCCCCC" stroke="black"/>
  <rect x="1200" y="130" width="20" height="20" fill="#CCCCCC" stroke="black"/>

  <rect x="1100" y="150" width="20" height="20" fill="#FFE66D" stroke="black"/><text x="1110" y="165" text-anchor="middle" class="text">1</text>
  <rect x="1120" y="150" width="20" height="20" fill="#CCCCCC" stroke="black"/>
  <rect x="1140" y="150" width="20" height="20" fill="#CCCCCC" stroke="black"/>
  <rect x="1160" y="150" width="20" height="20" fill="#FFE66D" stroke="black"/><text x="1170" y="165" text-anchor="middle" class="text">1</text>
  <rect x="1180" y="150" width="20" height="20" fill="#CCCCCC" stroke="black"/>
  <rect x="1200" y="150" width="20" height="20" fill="#CCCCCC" stroke="black"/>

  <text x="1200" y="260" text-anchor="middle" class="text">Sparsity: 67%</text>

  <!-- Benefits -->
  <text x="700" y="380" text-anchor="middle" class="text" fill="green" font-weight="bold">✓ Causal: 50% MACs reduction | Local: 75% | Strided: 67%</text>
  <text x="700" y="400" text-anchor="middle" class="text" fill="green" font-weight="bold">Attention MACs: 81M → 41M (50% reduction)</text>
</svg>