<?xml version="1.0" encoding="UTF-8"?>
<svg width="1400" height="700" xmlns="http://www.w3.org/2000/svg">
  <defs>
    <style>
      .title { font-size: 22px; font-weight: bold; }
      .header { font-size: 14px; font-weight: bold; }
      .text { font-size: 12px; }
    </style>
  </defs>

  <text x="700" y="40" text-anchor="middle" class="title">VLA Maturity Roadmap: Year 1 → Year 2</text>

  <!-- Legend -->
  <rect x="150" y="80" width="20" height="20" fill="#FF6B6B" stroke="black" stroke-width="1"/>
  <text x="180" y="95" class="text">Year 1 End (Baseline)</text>

  <rect x="150" y="110" width="20" height="20" fill="#A8E6CF" stroke="black" stroke-width="1"/>
  <text x="180" y="125" class="text">Year 2 End (Target)</text>

  <!-- Bar chart -->
  <!-- Vision -->
  <text x="200" y="200" text-anchor="middle" class="header">Vision</text>
  <rect x="150" y="220" width="40" height="260" fill="#FF6B6B" stroke="black" stroke-width="1"/>
  <text x="170" y="495" text-anchor="middle" class="text" font-weight="bold">6.5/10</text>

  <rect x="200" y="40" width="40" height="440" fill="#A8E6CF" stroke="black" stroke-width="1"/>
  <text x="220" y="495" text-anchor="middle" class="text" font-weight="bold">9.0/10</text>
  <text x="220" y="20" text-anchor="middle" class="text" fill="green" font-weight="bold">+38%</text>

  <!-- Language -->
  <text x="450" y="200" text-anchor="middle" class="header">Language</text>
  <rect x="400" y="180" width="40" height="300" fill="#FF6B6B" stroke="black" stroke-width="1"/>
  <text x="420" y="495" text-anchor="middle" class="text" font-weight="bold">7.5/10</text>

  <rect x="450" y="32" width="40" height="448" fill="#A8E6CF" stroke="black" stroke-width="1"/>
  <text x="470" y="495" text-anchor="middle" class="text" font-weight="bold">9.2/10</text>
  <text x="470" y="15" text-anchor="middle" class="text" fill="green" font-weight="bold">+23%</text>

  <!-- Action -->
  <text x="700" y="200" text-anchor="middle" class="header">Action</text>
  <rect x="650" y="300" width="40" height="200" fill="#FF6B6B" stroke="black" stroke-width="1"/>
  <text x="670" y="495" text-anchor="middle" class="text" font-weight="bold">5.0/10</text>

  <rect x="700" y="20" width="40" height="480" fill="#A8E6CF" stroke="black" stroke-width="1"/>
  <text x="720" y="495" text-anchor="middle" class="text" font-weight="bold">9.5/10</text>
  <text x="720" y="0" text-anchor="middle" class="text" fill="green" font-weight="bold">+90%</text>

  <!-- Overall -->
  <text x="1000" y="200" text-anchor="middle" class="header">Overall VLA</text>
  <rect x="950" y="148" width="40" height="252" fill="#FF6B6B" stroke="black" stroke-width="1"/>
  <text x="970" y="495" text-anchor="middle" class="text" font-weight="bold">6.3/10</text>

  <rect x="1000" y="32" width="40" height="448" fill="#A8E6CF" stroke="black" stroke-width="1"/>
  <text x="1020" y="495" text-anchor="middle" class="text" font-weight="bold">9.2/10</text>
  <text x="1020" y="15" text-anchor="middle" class="text" fill="green" font-weight="bold">+46%</text>

  <!-- Y-axis scale -->
  <line x1="120" y1="520" x2="120" y2="20" stroke="black" stroke-width="1"/>
  <text x="100" y="525" text-anchor="middle" class="text">0</text>
  <text x="100" y="275" text-anchor="middle" class="text">5</text>
  <text x="100" y="25" text-anchor="middle" class="text">10</text>

  <!-- Summary -->
  <rect x="150" y="570" width="1100" height="80" rx="10" fill="#E6F9E6" stroke="#228B22" stroke-width="2"/>
  <text x="700" y="595" text-anchor="middle" class="header" fill="#228B22">2년차 목표: 전체 VLA 성숙도 6.3/10 → 9.2/10 (+46% 향상)</text>
  <text x="700" y="620" text-anchor="middle" class="text" fill="#228B22">Memory (+40%) | Transformer (+25%) | Vision (+35%) | Power (+60%)</text>
</svg>